<?xml version="1.0" standalone="yes"?>
<svg xmlns="http://www.w3.org/2000/svg" width="181" height="181">
<path style="fill:#47704c; stroke:none;" d="M0 0L0 9C2.86903 5.83301 5.15114 3.01424 9 1C6.1103 -0.212936 3.12589 0.00172424 0 0z"/>
<path style="fill:#8dd6fa; stroke:none;" d="M9.00077 0.652771C-4.67819 4.96399 0 28.0232 0 39L0 138L0 162C0.000308593 166.799 -0.434044 171.847 2.65278 175.895C6.52072 180.967 12.1994 180.998 18 181L43 181L131 181L158 181C162.468 181 167.685 181.707 171.999 180.347C185.678 176.036 181 152.977 181 142L181 43L181 19C181 14.2008 181.434 9.15254 178.347 5.10493C174.479 0.0330505 168.801 0.00222778 163 0L138 0L50 0L23 0C18.5318 0 13.3151 -0.70697 9.00077 0.652771z"/>
<path style="fill:#47704c; stroke:none;" d="M172 0C175.167 2.86905 177.986 5.15112 180 9C181.213 6.11028 180.998 3.1259 181 0L172 0z"/>
<path style="fill:#ffffff; stroke:none;" d="M89 23.7539C83.9687 24.7749 78.4731 29.0869 74 31.5895C64.3099 37.0109 54.6392 42.4919 45 48.0008C41.0825 50.2396 33.5037 52.8384 31.6034 57.213C29.7362 61.5115 31 68.386 31 73L31 108C31 112.588 29.4783 120.596 32.0278 124.61C34.0133 127.737 38.8885 129.512 42 131.281L65 144.28L82 153.85C85.0941 155.613 88.2598 157.929 92 157.141C97.5894 155.963 103.107 151.649 108 148.85C117.311 143.524 126.787 138.443 136 132.951C139.985 130.575 147.441 128.328 149.397 123.79C151.256 119.475 150 112.626 150 108L150 73C150 68.3803 151.508 60.4361 148.972 56.3789C146.968 53.1724 142.179 51.3681 139 49.5895L117 37.3048L99 27.0008C95.9855 25.284 92.6406 23.0151 89 23.7539z"/>
<path style="fill:#d3ecfb; stroke:none;" d="M79.6667 28.3333C79.2222 28.7778 80.2778 28.7222 80.3333 28.6667C80.7778 28.2222 79.7222 28.2778 79.6667 28.3333z"/>
<path style="fill:#8dd6fa; stroke:none;" d="M41 59C44.3718 62.9361 52.4678 68.8892 58 68.3681C61.2195 68.0648 64.2197 65.5656 67 64.0918C73.8874 60.4409 80.7337 55.7501 88 53L88 33C71.8477 39.0776 55.7228 49.9892 41 59z"/>
<path style="fill:#d3ecfb; stroke:none;" d="M88 33L88 52C90.0196 47.1871 90.0196 37.8129 88 33M92 33L92 52C94.0196 47.1871 94.0196 37.8129 92 33z"/>
<path style="fill:#8dd6fa; stroke:none;" d="M93 33L93 53C100.266 55.7501 107.113 60.4409 114 64.0918C116.78 65.5656 119.781 68.0648 123 68.3681C128.532 68.8892 136.628 62.9361 140 59C125.275 49.9878 109.159 39.08 93 33z"/>
<path style="fill:#b7dcf5; stroke:none;" d="M109.667 33.3333C109.222 33.7778 110.278 33.7222 110.333 33.6667C110.778 33.2222 109.722 33.2778 109.667 33.3333M80.6667 36.3333C80.2222 36.7778 81.2778 36.7222 81.3333 36.6667C81.7777 36.2223 80.7223 36.2777 80.6667 36.3333z"/>
<path style="fill:#d3ecfb; stroke:none;" d="M99.6667 36.3333C99.2222 36.7778 100.278 36.7222 100.333 36.6667C100.778 36.2223 99.7222 36.2777 99.6667 36.3333z"/>
<path style="fill:#b7dcf5; stroke:none;" d="M116.667 37.3333C116.222 37.7778 117.278 37.7222 117.333 37.6667C117.778 37.2223 116.722 37.2777 116.667 37.3333M64.6667 45.3333C64.2222 45.7778 65.2778 45.7222 65.3333 45.6667C65.7778 45.2222 64.7222 45.2778 64.6667 45.3333M132.667 46.3333C132.222 46.7778 133.278 46.7222 133.333 46.6667C133.778 46.2222 132.722 46.2778 132.667 46.3333M57.6667 49.3333C57.2222 49.7778 58.2778 49.7222 58.3333 49.6667C58.7778 49.2222 57.7222 49.2778 57.6667 49.3333z"/>
<path style="fill:#d3ecfb; stroke:none;" d="M122.667 49.3333C122.222 49.7778 123.278 49.7222 123.333 49.6667C123.778 49.2223 122.722 49.2777 122.667 49.3333M85.6667 53.3333C85.2222 53.7778 86.2778 53.7222 86.3333 53.6667C86.7778 53.2222 85.7222 53.2778 85.6667 53.3333z"/>
<path style="fill:#b7dcf5; stroke:none;" d="M94.6667 53.3333C94.2222 53.7778 95.2778 53.7222 95.3333 53.6667C95.7778 53.2222 94.7222 53.2778 94.6667 53.3333z"/>
<path style="fill:#d3ecfb; stroke:none;" d="M30 56L30 125C32.1889 119.784 31 112.619 31 107L31 73C31 67.6498 32.0851 60.969 30 56z"/>
<path style="fill:#9db6d9; stroke:none;" d="M89 56L90 57L89 56z"/>
<path style="fill:#0069bc; stroke:none;" d="M85 59C87.9055 59.5551 90.9601 58.7364 94 59C90.8133 56.2573 88.5952 57.2776 85 59z"/>
<path style="fill:#9db6d9; stroke:none;" d="M91 56L92 57L91 56z"/>
<path style="fill:#d3ecfb; stroke:none;" d="M150 56L150 125C152.085 120.031 151 113.35 151 108L151 74C151 68.3809 152.189 61.2165 150 56z"/>
<path style="fill:#b7dcf5; stroke:none;" d="M87 57L88 58L87 57M93 57L94 58L93 57M85 58L86 59L85 58z"/>
<path style="fill:#6e99cd; stroke:none;" d="M86 58L87 59L86 58z"/>
<path style="fill:#1c78c0; stroke:none;" d="M65 71L65 73C72.5202 76.8863 83.2144 81.8694 89 88C95.9003 86.6694 101.995 81.9193 108 78.4244C111.932 76.1359 115.2 74.7309 116 70L110 69L111 67C104.632 64.3346 98.1678 58.5607 91 58.51C81.7946 58.4449 73.1036 67.4348 65 71z"/>
<path style="fill:#6e99cd; stroke:none;" d="M94 58L95 59L94 58z"/>
<path style="fill:#b7dcf5; stroke:none;" d="M95 58L96 59L95 58z"/>
<path style="fill:#6e99cd; stroke:none;" d="M84 59L85 60L84 59M96 59L97 60L96 59z"/>
<path style="fill:#9db6d9; stroke:none;" d="M82 60L83 61L82 60M98 60L99 61L98 60M80 61L81 62L80 61M100 61L101 62L100 61M78 62L79 63L78 62z"/>
<path style="fill:#0069bc; stroke:none;" d="M74 65C76.7635 65.4702 78.5528 64.369 81 63C78.3973 62.7419 76.4189 63.9326 74 65z"/>
<path style="fill:#9db6d9; stroke:none;" d="M102 62L103 63L102 62z"/>
<path style="fill:#edf7fe; stroke:none;" d="M37 63L37 119C38.9806 114.28 38 108.08 38 103C38 90.1878 36.0255 75.4939 39 63L37 63z"/>
<path style="fill:#b7dcf5; stroke:none;" d="M76 63L77 64L76 63z"/>
<path style="fill:#6e99cd; stroke:none;" d="M77 63L78 64L77 63M103 63L104 64L103 63z"/>
<path style="fill:#b7dcf5; stroke:none;" d="M104 63L105 64L104 63z"/>
<path style="fill:#edf7fe; stroke:none;" d="M142 63C143.623 69.8169 143 77.03 143 84L143 119C144.769 114.785 144 109.536 144 105L144 77C144 72.7586 145.399 65.9698 142 63z"/>
<path style="fill:#8dd6fa; stroke:none;" d="M38 64L38 119C42.713 116.518 51.1893 113.511 53.9722 108.787C56.2285 104.957 55 98.2868 55 94C55 88.3235 56.6669 79.4798 54.3966 74.2099C52.2663 69.265 42.8094 65.5219 38 64z"/>
<path style="fill:#d3ecfb; stroke:none;" d="M65.6667 64.3333C65.2222 64.7778 66.2778 64.7222 66.3333 64.6667C66.7778 64.2222 65.7222 64.2778 65.6667 64.3333z"/>
<path style="fill:#6e99cd; stroke:none;" d="M75 64L76 65L75 64M105 64L106 65L105 64z"/>
<path style="fill:#b7dcf5; stroke:none;" d="M114.667 64.3333C114.222 64.7778 115.278 64.7222 115.333 64.6667C115.778 64.2222 114.722 64.2778 114.667 64.3333z"/>
<path style="fill:#8dd6fa; stroke:none;" d="M143 119L143 64C138.191 65.5219 128.734 69.265 126.603 74.2099C124.333 79.4798 126 88.3235 126 94C126 98.2866 124.771 104.957 127.028 108.787C129.783 113.463 138.357 116.451 143 119z"/>
<path style="fill:#6e99cd; stroke:none;" d="M73 65L74 66L73 65z"/>
<path style="fill:#9db6d9; stroke:none;" d="M107 65L108 66L107 65M71 66L72 67L71 66M109 66L110 67L109 66M69 67L70 68L69 67z"/>
<path style="fill:#0069bc; stroke:none;" d="M63 71L63 73L70 76C68.3136 74.3441 67.2537 73.7493 65 73L65 71C67.5675 70.2607 69.6728 69.3175 72 68C68.721 67.521 65.9697 69.6226 63 71z"/>
<path style="fill:#9db6d9; stroke:none;" d="M111 67L112 68L111 67z"/>
<path style="fill:#b7dcf5; stroke:none;" d="M67 68L68 69L67 68z"/>
<path style="fill:#0069bc; stroke:none;" d="M110 68C111.458 69.0811 112.248 69.436 114 70C112.457 68.7333 111.952 68.5108 110 68z"/>
<path style="fill:#b7dcf5; stroke:none;" d="M113 68L114 69L113 68M65 69L66 70L65 69z"/>
<path style="fill:#6e99cd; stroke:none;" d="M66 69L67 70L66 69M114 69L115 70L114 69z"/>
<path style="fill:#b7dcf5; stroke:none;" d="M115 69L116 70L115 69z"/>
<path style="fill:#6e99cd; stroke:none;" d="M64 70L65 71L64 70M116 70L117 71L116 70z"/>
<path style="fill:#9db6d9; stroke:none;" d="M62.3333 71.6667C62.2778 71.7222 62.2222 72.7778 62.6667 72.3333C62.7223 72.2777 62.7778 71.2222 62.3333 71.6667z"/>
<path style="fill:#0069bc; stroke:none;" d="M116 71L116 73L118 73L118 71L116 71z"/>
<path style="fill:#9db6d9; stroke:none;" d="M118.333 71.6667C118.278 71.7222 118.222 72.7778 118.667 72.3333C118.722 72.2778 118.778 71.2222 118.333 71.6667z"/>
<path style="fill:#edf7fe; stroke:none;" d="M55 73L55 109C57.9032 102.081 56 91.4798 56 84C56 80.2976 56.4412 76.4345 55 73z"/>
<path style="fill:#6e99cd; stroke:none;" d="M64 73L65 74L64 73M116 73L117 74L116 73z"/>
<path style="fill:#edf7fe; stroke:none;" d="M125 73L125 109C127.903 102.081 126 91.4798 126 84C126 80.2976 126.441 76.4345 125 73z"/>
<path style="fill:#b7dcf5; stroke:none;" d="M65 74L66 75L65 74z"/>
<path style="fill:#6e99cd; stroke:none;" d="M66 74L67 75L66 74M114 74L115 75L114 74z"/>
<path style="fill:#b7dcf5; stroke:none;" d="M115 74L116 75L115 74z"/>
<path style="fill:#9db6d9; stroke:none;" d="M67 75L68 76L67 75M113 75L114 76L113 75M59 76L59 107C62.8324 97.867 58.6745 85.7676 61 76L59 76M69 76L70 77L69 76M111 76L112 77L111 76M120 76C122.338 85.8218 121 96.94 121 107C123.697 100.573 122.013 90.9425 122 84C121.994 80.8944 122.407 78.103 120 76z"/>
<path style="fill:#0069bc; stroke:none;" d="M60 77C60 86.2224 55.8705 105.944 66 110C64.5296 108.391 62.4445 106.85 61.5988 104.789C58.1327 96.3432 63.5597 85.4831 60 77z"/>
<path style="fill:#1c78c0; stroke:none;" d="M61 77C61.7679 78.3142 61.6858 78.2321 63 79C61.2243 85.0075 61.9896 91.7653 62 98C62.0048 100.887 61.7305 104.067 63.1397 106.699C65.4796 111.07 69.918 111.946 73.9105 114.093C78.3021 116.454 80.8042 118.73 86 119L86 101C85.9998 98.311 86.5243 94.8511 85.3966 92.3287C84.109 89.4484 80.5685 88.0553 78 86.5787C72.3825 83.3494 66.8662 79.7421 61 77z"/>
<path style="fill:#9db6d9; stroke:none;" d="M62 77L63 78L62 77z"/>
<path style="fill:#6e99cd; stroke:none;" d="M71 77L72 78L71 77M109 77L110 78L109 77z"/>
<path style="fill:#9db6d9; stroke:none;" d="M118 77L119 78L118 77z"/>
<path style="fill:#2e7cc1; stroke:none;" d="M119 77C117.891 86.9282 120.346 97.1442 118 107C120.407 104.897 119.994 102.106 120 99C120.013 92.3222 121.596 83.1856 119 77z"/>
<path style="fill:#0069bc; stroke:none;" d="M120 77L120 107C121.328 103.834 121 100.419 121 97C121 90.8463 122.395 82.707 120 77z"/>
<path style="fill:#b7dcf5; stroke:none;" d="M64 78L65 79L64 78M72 78L73 79L72 78z"/>
<path style="fill:#6e99cd; stroke:none;" d="M73 78L74 79L73 78z"/>
<path style="fill:#0069bc; stroke:none;" d="M74 78C75.2228 79.1952 75.42 79.3164 77 80C75.7772 78.8048 75.58 78.6836 74 78z"/>
<path style="fill:#6e99cd; stroke:none;" d="M107 78L108 79L107 78z"/>
<path style="fill:#b7dcf5; stroke:none;" d="M108 78L109 79L108 78M116 78L117 79L116 78z"/>
<path style="fill:#0069bc; stroke:none;" d="M116 80C117.58 79.3164 117.777 79.1952 119 78C117.42 78.6836 117.223 78.8048 116 80z"/>
<path style="fill:#2e7cc1; stroke:none;" d="M61 79L61 98C61.0015 101.317 60.3958 104.724 63 107C60.9926 98.5682 60.9926 87.4318 63 79L61 79z"/>
<path style="fill:#6e99cd; stroke:none;" d="M65 79L66 80L65 79z"/>
<path style="fill:#9db6d9; stroke:none;" d="M74 79L75 80L74 79M106 79L107 80L106 79z"/>
<path style="fill:#6e99cd; stroke:none;" d="M115 79L116 80L115 79z"/>
<path style="fill:#9db6d9; stroke:none;" d="M67 80L68 81L67 80M76 80L77 81L76 80M104 80L105 81L104 80M113 80L114 81L113 80z"/>
<path style="fill:#1c78c0; stroke:none;" d="M95 91C95 100.203 93.385 111.153 96 120C99.4845 118.996 102.658 117.39 106 116L105 114C110.512 112.847 115.049 110.604 120 108C118.315 105.305 119 102.262 119 99L119 80C110.004 80.6754 103.471 88.7297 95 91z"/>
<path style="fill:#9db6d9; stroke:none;" d="M69 81L70 82L69 81z"/>
<path style="fill:#6e99cd; stroke:none;" d="M78 81L79 82L78 81z"/>
<path style="fill:#0069bc; stroke:none;" d="M79 81C80.2228 82.1952 80.42 82.3164 82 83C80.7772 81.8048 80.58 81.6836 79 81z"/>
<path style="fill:#6e99cd; stroke:none;" d="M102 81L103 82L102 81z"/>
<path style="fill:#9db6d9; stroke:none;" d="M111 81L112 82L111 81z"/>
<path style="fill:#0069bc; stroke:none;" d="M111 83C112.58 82.3164 112.777 82.1952 114 81C112.42 81.6836 112.223 81.8048 111 83z"/>
<path style="fill:#6e99cd; stroke:none;" d="M70 82L71 83L70 82z"/>
<path style="fill:#b7dcf5; stroke:none;" d="M71 82L72 83L71 82M79 82L80 83L79 82M101 82L102 83L101 82M109 82L110 83L109 82z"/>
<path style="fill:#6e99cd; stroke:none;" d="M110 82L111 83L110 82M72 83L73 84L72 83z"/>
<path style="fill:#9db6d9; stroke:none;" d="M81 83L82 84L81 83M99 83L100 84L99 83z"/>
<path style="fill:#6e99cd; stroke:none;" d="M108 83L109 84L108 83z"/>
<path style="fill:#9db6d9; stroke:none;" d="M74 84L75 85L74 84M83 84L84 85L83 84M97 84L98 85L97 84M106 84L107 85L106 84z"/>
<path style="fill:#b7dcf5; stroke:none;" d="M84 85L85 86L84 85z"/>
<path style="fill:#6e99cd; stroke:none;" d="M85 85L86 86L85 85z"/>
<path style="fill:#0069bc; stroke:none;" d="M86 85C87.2228 86.1952 87.42 86.3164 89 87C87.7772 85.8048 87.58 85.6836 86 85z"/>
<path style="fill:#6e99cd; stroke:none;" d="M95 85L96 86L95 85z"/>
<path style="fill:#b7dcf5; stroke:none;" d="M104 85L105 86L104 85z"/>
<path style="fill:#0069bc; stroke:none;" d="M104 87C105.58 86.3164 105.777 86.1952 107 85C105.42 85.6836 105.223 85.8048 104 87z"/>
<path style="fill:#6e99cd; stroke:none;" d="M77 86L78 87L77 86z"/>
<path style="fill:#b7dcf5; stroke:none;" d="M78 86L79 87L78 86M86 86L87 87L86 86M94 86L95 87L94 86M102 86L103 87L102 86z"/>
<path style="fill:#6e99cd; stroke:none;" d="M103 86L104 87L103 86z"/>
<path style="fill:#9db6d9; stroke:none;" d="M79 87L80 88L79 87M88 87L89 88L88 87M92 87L93 88L92 87z"/>
<path style="fill:#6e99cd; stroke:none;" d="M101 87L102 88L101 87z"/>
<path style="fill:#9db6d9; stroke:none;" d="M81 88L82 89L81 88M90 88L91 89L90 88M99 88L100 89L99 88z"/>
<path style="fill:#b7dcf5; stroke:none;" d="M83 89L84 90L83 89M97 89L98 90L97 89z"/>
<path style="fill:#0069bc; stroke:none;" d="M97 91C98.58 90.3164 98.7772 90.1952 100 89C98.42 89.6836 98.2228 89.8048 97 91z"/>
<path style="fill:#6e99cd; stroke:none;" d="M84 90L85 91L84 90M96 90L97 91L96 90z"/>
<path style="fill:#9db6d9; stroke:none;" d="M86 91L87 92L86 91M94 91L95 92L94 91z"/>
<path style="fill:#0069bc; stroke:none;" d="M86 92C88.2673 101.523 87 112.247 87 122C89.5956 115.814 88.0129 106.678 88 100C87.994 96.8945 88.4066 94.1029 86 92z"/>
<path style="fill:#b7dcf5; stroke:none;" d="M88 92L88 123C90.497 117.049 89.0004 108.42 89 102C88.9998 98.5814 89.3283 95.1656 88 92M92 92L92 123C94.497 117.049 93.0004 108.42 93 102C92.9998 98.5814 93.3283 95.1656 92 92z"/>
<path style="fill:#0069bc; stroke:none;" d="M93 92L93 122C96.7141 113.149 92.746 101.467 95 92L93 92z"/>
<path style="fill:#2e7cc1; stroke:none;" d="M86 93C86 102.498 84.9501 112.6 86 122C88.2921 116.538 87.0004 108.887 87 103C86.9998 99.5814 87.3283 96.1656 86 93M94 93L94 122L97 121C93.1948 112.02 97.6338 101.66 94 93z"/>
<path style="fill:#6e99cd; stroke:none;" d="M60 107L61 108L60 107M120 107L121 108L120 107z"/>
<path style="fill:#b7dcf5; stroke:none;" d="M61 108L62 109L61 108z"/>
<path style="fill:#6e99cd; stroke:none;" d="M62 108L63 109L62 108M118 108L119 109L118 108z"/>
<path style="fill:#b7dcf5; stroke:none;" d="M119 108L120 109L119 108z"/>
<path style="fill:#9db6d9; stroke:none;" d="M63 109L64 110L63 109M117 109L118 110L117 109M65 110L66 111L65 110M115 110L116 111L115 110M67 111L68 112L67 111M113 111L114 112L113 111z"/>
<path style="fill:#8dd6fa; stroke:none;" d="M42 121L42 123C57.6728 130.317 71.7372 142.082 88 148C88 142.45 89.5162 134.289 87.3966 129.105C86.2577 126.319 83.4944 125.075 80.9992 123.745C75.0852 120.593 65.7919 112.736 59 112.784C53.334 112.824 47.0317 118.651 42 121z"/>
<path style="fill:#6e99cd; stroke:none;" d="M69 112L70 113L69 112M111 112L112 113L111 112z"/>
<path style="fill:#8dd6fa; stroke:none;" d="M93 148C108.273 142.44 124.4 131.894 138 123L138 121C133.699 118.391 128.003 113.637 123 112.865C116.478 111.859 106.6 120.237 101 123.22C98.5377 124.532 95.5154 125.692 94.0278 128.213C91.1777 133.044 93 142.524 93 148z"/>
<path style="fill:#b7dcf5; stroke:none;" d="M70 113L71 114L70 113z"/>
<path style="fill:#6e99cd; stroke:none;" d="M71 113L72 114L71 113z"/>
<path style="fill:#0069bc; stroke:none;" d="M72 113C73.6864 114.656 74.7463 115.251 77 116C75.3136 114.344 74.2537 113.749 72 113M105 114C106.809 114.574 107.069 114.465 109 114C107.341 113.594 106.758 113.691 105 114z"/>
<path style="fill:#6e99cd; stroke:none;" d="M109 113L110 114L109 113z"/>
<path style="fill:#b7dcf5; stroke:none;" d="M110 113L111 114L110 113M72 114L73 115L72 114z"/>
<path style="fill:#9db6d9; stroke:none;" d="M74 115L75 116L74 115M106 115L107 116L106 115z"/>
<path style="fill:#b7dcf5; stroke:none;" d="M136.667 115.333C136.222 115.778 137.278 115.722 137.333 115.667C137.778 115.222 136.722 115.278 136.667 115.333z"/>
<path style="fill:#9db6d9; stroke:none;" d="M76 116L77 117L76 116M104 116L105 117L104 116z"/>
<path style="fill:#d3ecfb; stroke:none;" d="M129.667 116.333C129.222 116.778 130.278 116.722 130.333 116.667C130.778 116.222 129.722 116.278 129.667 116.333z"/>
<path style="fill:#6e99cd; stroke:none;" d="M78 117L79 118L78 117M102 117L103 118L102 117z"/>
<path style="fill:#d3ecfb; stroke:none;" d="M70.6667 118.333C70.2223 118.778 71.2778 118.722 71.3333 118.667C71.7778 118.222 70.7222 118.278 70.6667 118.333z"/>
<path style="fill:#6e99cd; stroke:none;" d="M80 118L81 119L80 118M100 118L101 119L100 118z"/>
<path style="fill:#b7dcf5; stroke:none;" d="M109.667 118.333C109.222 118.778 110.278 118.722 110.333 118.667C110.778 118.222 109.722 118.278 109.667 118.333M81 119L82 120L81 119z"/>
<path style="fill:#6e99cd; stroke:none;" d="M82 119L83 120L82 119z"/>
<path style="fill:#0069bc; stroke:none;" d="M83 119C84.2228 120.195 84.42 120.316 86 121C84.7772 119.805 84.58 119.684 83 119z"/>
<path style="fill:#6e99cd; stroke:none;" d="M98 119L99 120L98 119z"/>
<path style="fill:#b7dcf5; stroke:none;" d="M99 119L100 120L99 119z"/>
<path style="fill:#9db6d9; stroke:none;" d="M83 120L84 121L83 120M97 120L98 121L97 120M85 121L86 122L85 121M95 121L96 122L95 121z"/>
<path style="fill:#b7dcf5; stroke:none;" d="M138.333 121.667C138.278 121.722 138.222 122.778 138.667 122.333C138.722 122.278 138.778 121.222 138.333 121.667z"/>
<path style="fill:#6e99cd; stroke:none;" d="M87 122L88 123L87 122M93 122L94 123L93 122z"/>
<path style="fill:#d3ecfb; stroke:none;" d="M129.667 127.333C129.222 127.778 130.278 127.722 130.333 127.667C130.778 127.222 129.722 127.278 129.667 127.333M88 128L88 148C90.0866 143.027 90.0866 132.973 88 128M92 128L92 148C94.0866 143.027 94.0866 132.973 92 128z"/>
<path style="fill:#b7dcf5; stroke:none;" d="M139.667 130.333C139.222 130.778 140.278 130.722 140.333 130.667C140.778 130.222 139.722 130.278 139.667 130.333M57.6667 131.333C57.2222 131.778 58.2778 131.722 58.3333 131.667C58.7778 131.222 57.7222 131.278 57.6667 131.333M123.667 139.333C123.222 139.778 124.278 139.722 124.333 139.667C124.778 139.222 123.722 139.278 123.667 139.333M116.667 143.333C116.222 143.778 117.278 143.722 117.333 143.667C117.778 143.222 116.722 143.278 116.667 143.333z"/>
<path style="fill:#d3ecfb; stroke:none;" d="M72.6667 148.333C72.2222 148.778 73.2778 148.722 73.3333 148.667C73.7778 148.222 72.7222 148.278 72.6667 148.333z"/>
<path style="fill:#b7dcf5; stroke:none;" d="M93.6667 156.333C93.2222 156.778 94.2778 156.722 94.3333 156.667C94.7778 156.222 93.7222 156.278 93.6667 156.333z"/>
<path style="fill:#47704c; stroke:none;" d="M0 172L0 181L9 181C5.79883 178.1 2.9 175.201 0 172M180 172C178.028 175.768 175.768 178.028 172 180C174.89 181.213 177.874 180.998 181 181C180.998 177.874 181.213 174.89 180 172z"/>
</svg>
