<?xml version="1.0" standalone="no"?>
<svg xmlns="http://www.w3.org/2000/svg" width="28" height="28">
<path style="fill:#8dd6fa; stroke:none;" d="M0 0L0 28L28 28L28 0L0 0z"/>
<path style="fill:#b5e1fb; stroke:none;" d="M13.6667 3.33333C13.2222 3.77778 14.2778 3.72222 14.3333 3.66667C14.7778 3.22223 13.7222 3.27778 13.6667 3.33333z"/>
<path style="fill:#f9fcfe; stroke:none;" d="M7 20C5.55182 12.1669 7.75042 8.45222 15 5C6.98583 2.80872 1.00411 14.7606 7 20z"/>
<path style="fill:#def1fd; stroke:none;" d="M15 4C15.9802 5.78334 15.9076 5.59433 18 6C16.8607 4.98456 16.3884 4.69133 15 4z"/>
<path style="fill:#bde4fb; stroke:none;" d="M13 5L13 8L15 8L15 5L13 5z"/>
<path style="fill:#81d3f9; stroke:none;" d="M7 9C10.0606 9.81796 11.4643 8.63971 13 6C10.7778 6.81023 9.00981 7.7386 7 9M15 6C16.5733 8.71874 17.9249 9.3727 21 10C19.1038 7.98014 17.5853 7.00527 15 6z"/>
<path style="fill:#f4fafe; stroke:none;" d="M17 6C21.1981 11.0876 25.0958 19.9304 14.9992 21.5355C12.3676 21.9538 9.54205 20.5513 7 20C8.51809 21.5148 9.83953 22.7677 12.0185 23.3086C23.1592 26.0744 27.8858 8.67489 17 6z"/>
<path style="fill:#cdebfc; stroke:none;" d="M7 10C7.76405 13.5131 7.43751 16.4616 7 20L11 18C10.5235 17.0729 9.64262 15.9406 9.78241 14.7932C10.6467 7.69889 20.9275 10.9886 17 17L21 20C20.9544 16.5302 19.888 13.9434 22 11C16.6901 8.0214 12.6726 8.50296 7 10z"/>
<path style="fill:#bce4fb; stroke:none;" d="M4 9L4 19C5.34572 15.793 5.34572 12.207 4 9z"/>
<path style="fill:#3f7fc2; stroke:none;" d="M13.6667 9.33333C13.2222 9.77778 14.2778 9.72222 14.3333 9.66667C14.7778 9.22223 13.7222 9.27778 13.6667 9.33333z"/>
<path style="fill:#bce4fb; stroke:none;" d="M23 9L23 19C24.3457 15.793 24.3457 12.207 23 9z"/>
<path style="fill:#7fd2f9; stroke:none;" d="M6 10L6 18C8.16473 15.128 8.16473 12.872 6 10z"/>
<path style="fill:#668ec7; stroke:none;" d="M11 10L12 11L11 10z"/>
<path style="fill:#0075bf; stroke:none;" d="M11 11C12.9926 11.7123 14.8686 11.8252 17 12C14.7292 10.3198 13.7581 10.3428 11 11z"/>
<path style="fill:#678fc7; stroke:none;" d="M16 10L17 11L16 10z"/>
<path style="fill:#b8c8e2; stroke:none;" d="M10 11C11.4456 14.0873 12.5109 15.765 11 19L16 20C15.6415 17.4893 15.5975 15.5018 16 13L10 11z"/>
<path style="fill:#337dc2; stroke:none;" d="M13.6667 11.3333C13.2222 11.7778 14.2778 11.7222 14.3333 11.6667C14.7778 11.2222 13.7222 11.2778 13.6667 11.3333z"/>
<path style="fill:#b3c5e1; stroke:none;" d="M17 11L16 13L18 13C18 11.1468 18.2997 11.6498 17 11z"/>
<path style="fill:#8cd5fa; stroke:none;" d="M20 11C20.0519 13.5283 20.2776 15.5819 21 18C21.9845 15.6684 21.9813 13.5433 22 11L20 11z"/>
<path style="fill:#89a2ce; stroke:none;" d="M9 12L9 17C9.82989 14.9695 9.82989 14.0305 9 12z"/>
<path style="fill:#0065ba; stroke:none;" d="M13.6667 12.3333C13.2222 12.7778 14.2778 12.7222 14.3333 12.6667C14.7778 12.2222 13.7222 12.2778 13.6667 12.3333z"/>
<path style="fill:#84a4d1; stroke:none;" d="M15 12L16 13L15 12z"/>
<path style="fill:#89a2ce; stroke:none;" d="M18 12L18 17C18.8299 14.9695 18.8299 14.0305 18 12z"/>
<path style="fill:#0064ba; stroke:none;" d="M10 13C10.4266 15.6445 10.8209 16.4606 13 18C12.5734 15.3555 12.1791 14.5394 10 13z"/>
<path style="fill:#7199cc; stroke:none;" d="M11 13L12 14L11 13z"/>
<path style="fill:#7299cc; stroke:none;" d="M16 13L17 14L16 13z"/>
<path style="fill:#0065ba; stroke:none;" d="M17 13C15.6638 14.8255 15.3096 15.7528 15 18C17.1748 16.4513 17.8934 15.5848 17 13z"/>
<path style="fill:#4784c4; stroke:none;" d="M16 15L17 16L16 15z"/>
<path style="fill:#84a0ce; stroke:none;" d="M11 17L12 18L11 17M16 17L17 18L16 17z"/>
<path style="fill:#85d3f9; stroke:none;" d="M8 18C9.4024 20.2743 10.5147 20.9873 13 22C11.6274 19.4527 10.7817 18.8125 8 18M15 22C17.4853 20.9873 18.5976 20.2743 20 18C16.9867 18.5083 16.127 19.1595 15 22z"/>
<path style="fill:#e8f5fd; stroke:none;" d="M13.6667 19.3333C13.2222 19.7778 14.2778 19.7222 14.3333 19.6667C14.7778 19.2222 13.7222 19.2778 13.6667 19.3333z"/>
<path style="fill:#bee5fb; stroke:none;" d="M13 20L13 23L15 23L15 20L13 20z"/>
</svg>
